/* XPM */
static char *battery__[] = {
/* columns rows colors chars-per-pixel */
"22 22 154 2 ",
"   c #272825",
".  c #2B2C29",
"X  c #433D30",
"o  c #474235",
"O  c #555753",
"+  c #60615F",
"@  c #656763",
"#  c #6E6F6C",
"$  c #6F706E",
"%  c #797162",
"&  c #7B7C79",
"*  c #8F5902",
"=  c #8E5A07",
"-  c #945F0D",
";  c #9B6712",
":  c #99691A",
">  c #A7701A",
",  c #BB7A17",
"<  c #B4761B",
"1  c #A57427",
"2  c #AB7725",
"3  c #A2712A",
"4  c #A7772C",
"5  c #B3843B",
"6  c #C08124",
"7  c #CC8C2C",
"8  c #DD962C",
"9  c #D89735",
"0  c #F9A72E",
"q  c #EEA232",
"w  c #E4A13D",
"e  c #F3A93C",
"r  c #9F8357",
"t  c #BC9252",
"y  c #B99A6B",
"u  c #CA9340",
"i  c #C09657",
"p  c #D09E53",
"a  c #D19F55",
"s  c #E9A440",
"d  c #F0AC46",
"f  c #FDB54A",
"g  c #FDB64C",
"h  c #E6AA50",
"j  c #E3AC58",
"k  c #ECB45E",
"l  c #FDBA56",
"z  c #FDBA57",
"x  c #F1B458",
"c  c #F2B558",
"v  c #FDBD5D",
"b  c #C59E64",
"n  c #DAAC69",
"m  c #DBAE6D",
"M  c #EBB86B",
"N  c #EABE7E",
"B  c #8F8C83",
"V  c #898A87",
"C  c #8F8F8C",
"Z  c #8F918C",
"A  c #90928D",
"S  c #90908E",
"D  c #91918F",
"F  c #91938E",
"G  c #9C998F",
"H  c #929290",
"J  c #929391",
"K  c #939590",
"L  c #949491",
"P  c #979591",
"I  c #959592",
"U  c #969794",
"Y  c #999997",
"T  c #999B97",
"R  c #9C9D99",
"E  c #9E9C99",
"W  c #A3A09A",
"Q  c #B0A798",
"!  c #A5A6A3",
"~  c #ABAAA1",
"^  c #ACABA2",
"/  c #ACACA3",
"(  c #ADACA3",
")  c #A8A9A5",
"_  c #A9AAA7",
"`  c #AEADA5",
"'  c #ADACA9",
"]  c #AEAFAC",
"[  c #B0AEA6",
"{  c #B0B1AD",
"}  c #B5B4AC",
"|  c #B2B3B0",
" . c #B5B6B4",
".. c #B6B7B4",
"X. c #B8B9B6",
"o. c #BABBB8",
"O. c #BEBEBC",
"+. c #BEBFBC",
"@. c #DABB8C",
"#. c #C0B8A9",
"$. c #EAC389",
"%. c #F5CD90",
"&. c #F5CE94",
"*. c #F9D093",
"=. c #FED496",
"-. c #FED79D",
";. c #CCC1AE",
":. c #D3C5AF",
">. c #C1C1BE",
",. c #ECCEA0",
"<. c #ECD1A5",
"1. c #EDD1A7",
"2. c #EAD2AE",
"3. c #FCD6A2",
"4. c #FDD7A3",
"5. c #FED8A0",
"6. c #FDD8A3",
"7. c #FEDAA5",
"8. c #FEDBA7",
"9. c #FBDAA9",
"0. c #FCD9A8",
"q. c #FCDAA9",
"w. c #FDDDAC",
"e. c #E1CFB2",
"r. c #E6D1B3",
"t. c #E9D3B2",
"y. c #F2D7B0",
"u. c #F5DAB4",
"i. c #FEE0B3",
"p. c #FEE3BB",
"a. c #FAE2BE",
"s. c #C4C5C3",
"d. c #C6C6C4",
"f. c #C7C8C7",
"g. c #CCC9C4",
"h. c #CCCDCB",
"j. c #CFD0CE",
"k. c #D5D5D3",
"l. c #F2DEC0",
"z. c #F4E2C7",
"x. c #FAE3C0",
"c. c #FEE5C0",
"v. c #FEE5C1",
"b. c #FEE5C2",
"n. c #FEE6C3",
"m. c #FAE5C6",
"M. c #FEE6C4",
"N. c #FEE7C7",
"B. c #FBE8CC",
"V. c #FDEACD",
"C. c #FEEACC",
"Z. c #FEECD1",
"A. c #FBEDD8",
"S. c None",
/* pixels */
"S.S.S.S.S.S.S.S.* * * * * * S.S.S.S.S.S.S.S.",
"S.S.S.S.S.S.* * - m y.1.a = * * S.S.S.S.S.S.",
"S.S.S.S.S.* 2.B.> V.p.p.9.; z.r.: S.S.S.S.S.",
"S.S.S.S.* Z.7.=.u 8 e q , 4 5.7.A.* S.S.S.S.",
"S.S.S.* :.5.=.=.=.$.2 1 5 *.=.=.5.;.* S.S.S.",
"S.S.S.* m.i.=.=.=.=.=.=.=.=.=.=.w.r.* S.S.S.",
"S.S.S.* &.q.V.v.5.-.=.=.=.7.x.l.@.i * S.S.S.",
"S.S.S.* %.0 q.N.v.N.v.x.u.,.j 5 < b * S.S.S.",
"S.S.S.* $.0 3.4.l l v x h 9 7 6 < y * S.S.S.",
"S.S.S.O #.s 9.5.l f g d w 9 7 6 3 G O S.S.S.",
"S.S.S.O [ K t.<.M k x j p t r % + I O S.S.S.",
"S.S.S.O ` S j.k.o.| ] _ U V & # + U O S.S.S.",
"S.S.S.O / S +.d.X.| ] _ U V & # O U O S.S.S.",
"S.S.S.O / Z ..+...| ] _ U V & # @ J O S.S.S.",
"S.S.S.O ^ Z ! { ..| ] _ U V & # O J O S.S.S.",
"S.S.S.O ~ S R { ..| ] _ U V & # @ C O S.S.S.",
"S.S.S.O } T R ) X.{ ] _ U V & # $ W O S.S.S.",
"S.S.S.S.O ' >.{ X.{ ] _ U V J Y P O S.S.S.S.",
"S.S.S.S.S.O @ Q g.h.f.d.o.R B @ O S.S.S.S.S.",
"S.S.S.S.S.S.. o O O O O O O X   S.S.S.S.S.S.",
"S.S.S.S.S.S.S.S.S.S.S.S.S.S.S.S.S.S.S.S.S.S.",
"S.S.S.S.S.S.S.S.S.S.S.S.S.S.S.S.S.S.S.S.S.S."
};
