/* XPM */
static char *clock[] = {
/* columns rows colors chars-per-pixel */
"22 22 115 2 ",
"   c #080808",
".  c #0D0D0D",
"X  c #121212",
"o  c #161616",
"O  c #171717",
"+  c #181818",
"@  c #191919",
"#  c #1A1A1A",
"$  c #1B1B1B",
"%  c #1C1C1C",
"&  c #1E1E1E",
"*  c #232323",
"=  c #252525",
"-  c #272727",
";  c #2C2C2C",
":  c #2E2E2E",
">  c #303030",
",  c #3F3F3F",
"<  c #424242",
"1  c #484848",
"2  c #4A4A4A",
"3  c #4D4D4D",
"4  c #4F4F4F",
"5  c #505050",
"6  c #525252",
"7  c #535353",
"8  c #545454",
"9  c #555555",
"0  c #5C5C5C",
"q  c #5E5E5E",
"w  c #5F5F5F",
"e  c #696969",
"r  c #6A6A6A",
"t  c #717171",
"y  c #737373",
"u  c #747474",
"i  c #787878",
"p  c #838383",
"a  c #898989",
"s  c #8A8A8A",
"d  c #8C8C8C",
"f  c #8D8D8D",
"g  c #919191",
"h  c #969696",
"j  c #979797",
"k  c #AAAAAA",
"l  c #AEAEAE",
"z  c #AFAFAF",
"x  c #B6B6B6",
"c  c #BABABA",
"v  c #BEBEBE",
"b  c #BFBFBF",
"n  c #C2ADAD",
"m  c #C3C3C3",
"M  c #CACACA",
"N  c #CBCBCB",
"B  c #CECACA",
"V  c #DFCACA",
"C  c #D1D1D1",
"Z  c #D2D0D0",
"A  c #D9D9D9",
"S  c #DADADA",
"D  c #DFD9D9",
"F  c #DBDCDC",
"G  c #DCDCDC",
"H  c #DDDDDD",
"J  c #DEDEDE",
"K  c #DFDFDF",
"L  c #E1DEDE",
"P  c #EBDDDD",
"I  c #E0E0E0",
"U  c #E1E1E1",
"Y  c #E3E3E3",
"T  c #E6E0E0",
"R  c #E4E4E4",
"E  c #E5E5E5",
"W  c #E6E6E6",
"Q  c #E7E7E7",
"!  c #EBE3E3",
"~  c #E8E6E6",
"^  c #ECE6E6",
"/  c #EDE6E6",
"(  c #EFE6E6",
")  c #E8E8E8",
"_  c #E8E9E9",
"`  c #E9E9E9",
"'  c #EAEAEA",
"]  c #EAEBEB",
"[  c #EBEBEB",
"{  c #EDECEC",
"}  c #ECEDED",
"|  c #EDEDED",
" . c #EDEEEE",
".. c #EEEEEE",
"X. c #EFEEEE",
"o. c #EFEFEF",
"O. c #F0EFEF",
"+. c #F0F0F0",
"@. c #F1F1F1",
"#. c #F2F2F2",
"$. c #F3F3F3",
"%. c #F4F4F4",
"&. c #F5F5F5",
"*. c #F6F6F6",
"=. c #F7F7F7",
"-. c #F8F7F7",
";. c #F8F8F8",
":. c #F9F9F9",
">. c #FAFAFA",
",. c #FBFBFB",
"<. c #FCFCFC",
"1. c #FDFDFD",
"2. c #FEFEFE",
"3. c #FFFFFF",
"4. c None",
/* pixels */
"4.4.4.4.4.4.4.4.4.4.4.4.4.4.4.4.4.4.4.4.4.4.",
"4.4.4.4.4.4.4.4.9 u p p y 9 4.4.4.4.4.4.4.4.",
"4.4.4.4.4.4.7 f b J W W S b f 7 4.4.4.4.4.4.",
"4.4.4.4.4.q z [ 1.1.+.&.1.>.[ z q 4.4.4.4.4.",
"4.4.4.4.4 z &.1.1.1.+.+.1.1.1.&.k 4 4.4.4.4.",
"4.4.4.> s +.1.1.1.1.>.>.1.1.>.| W s : 4.4.4.",
"4.4.4.2 N 1.>.>.1.<.<.>.1.&.W | 1.N 2 4.4.4.",
"4.4.# r | >.>.| [ &.>.>.+.S } >.&.[ r # 4.4.",
"4.4.= s +.$.*.&.[ J +.| C T ( ! ( | s = 4.4.",
"4.4.- j K A E } +.[ B n V P ` ! S J j - 4.4.",
"4.4.= g E K E ) [ | L D | | | W J Y g = 4.4.",
"4.4.% i E ) ) E W W ) ) [ W W W W W i & 4.4.",
"4.4.4.7 C ) E ) ) ) E ) W W W W W C 7 4.4.4.",
"4.4.4.; h ) ) E E E ) ) W W W W W h ; 4.4.4.",
"4.4.4.o 1 c ) ) E ) K K ) ) [ ! c 2 o 4.4.4.",
"4.4.4.4.% 7 x E ) ) A A ) ) E x 9 # 4.4.4.4.",
"4.4.4.4.4.# < s m J S S J m s < o 4.4.4.4.4.",
"4.4.4.4.4.4.. * , q y y q , * . 4.4.4.4.4.4.",
"4.4.4.4.4.4.4.4.. . # o X . 4.4.4.4.4.4.4.4.",
"4.4.4.4.4.4.4.4.4.4.4.4.4.4.4.4.4.4.4.4.4.4.",
"4.4.4.4.4.4.4.4.4.4.4.4.4.4.4.4.4.4.4.4.4.4.",
"4.4.4.4.4.4.4.4.4.4.4.4.4.4.4.4.4.4.4.4.4.4."
};
