/* XPM */
static char *cpu[] = {
/* columns rows colors chars-per-pixel */
"22 22 171 2 ",
"   c #272727",
".  c #282828",
"X  c #2F2F2F",
"o  c #313131",
"O  c #333333",
"+  c #343434",
"@  c #353535",
"#  c #363636",
"$  c #373737",
"%  c #383839",
"&  c #393939",
"*  c #3A3A3A",
"=  c #3C3C3C",
"-  c #3D3D3D",
";  c #3C3D3E",
":  c #3D3E3E",
">  c #3E3E3E",
",  c #3F3F3F",
"<  c #473E3D",
"1  c #7A4728",
"2  c #424242",
"3  c #444444",
"4  c #454545",
"5  c #464646",
"6  c #474747",
"7  c #484848",
"8  c #484949",
"9  c #4B4B4B",
"0  c #4C494B",
"q  c #4D4D4D",
"w  c #4F4F4F",
"e  c #544949",
"r  c #4F5050",
"t  c #515151",
"y  c #515152",
"u  c #525252",
"i  c #555555",
"p  c #555656",
"a  c #565656",
"s  c #565757",
"d  c #575757",
"f  c #565758",
"g  c #595758",
"h  c #585858",
"j  c #595959",
"k  c #5B5A5B",
"l  c #5B5B5B",
"z  c #5D5959",
"x  c #5F595A",
"c  c #5C5C5C",
"v  c #5D5D5D",
"b  c #5E5E5E",
"n  c #5F5F5F",
"m  c #6A4E42",
"M  c #765246",
"N  c #675754",
"B  c #69595A",
"V  c #766155",
"C  c #7D6756",
"Z  c #615F60",
"A  c #616161",
"S  c #626262",
"D  c #656162",
"F  c #646263",
"G  c #646464",
"H  c #666666",
"J  c #676767",
"K  c #6A6363",
"L  c #686868",
"P  c #696969",
"I  c #6A6A6A",
"U  c #6A6A6B",
"Y  c #6C6C6C",
"T  c #6D6D6D",
"R  c #6E6E6E",
"E  c #6F6F6F",
"W  c #7E6E6A",
"Q  c #707070",
"!  c #747474",
"~  c #7B797A",
"^  c #7A7A7A",
"/  c #7B7B7B",
"(  c #7C7C7C",
")  c #7D7D7D",
"_  c #7F7F7F",
"`  c #AF4D10",
"'  c #B24711",
"]  c #A75512",
"[  c #B56019",
"{  c #BD641A",
"}  c #925C26",
"|  c #965E39",
" . c #AC5221",
".. c #AC662E",
"X. c #BF6628",
"o. c #BC6833",
"O. c #B76438",
"+. c #B77337",
"@. c #B9703C",
"#. c #CA6F20",
"$. c #C16C2B",
"%. c #C27827",
"&. c #C77028",
"*. c #CD722F",
"=. c #DE752C",
"-. c #C16E3D",
";. c #C77533",
":. c #E37A38",
">. c #8B6049",
",. c #966D46",
"<. c #806252",
"1. c #8E6D57",
"2. c #A67E4A",
"3. c #B87F40",
"4. c #83716B",
"5. c #827775",
"6. c #9A7770",
"7. c #C47140",
"8. c #CF7C48",
"9. c #D4892F",
"0. c #CA8E3E",
"q. c #DC8C31",
"w. c #D89136",
"e. c #DD9C3A",
"r. c #E39D36",
"t. c #BE995C",
"y. c #B18A65",
"u. c #BF8C6B",
"i. c #CE8D48",
"p. c #D78843",
"a. c #CB8B54",
"s. c #CD8E5C",
"d. c #CA945D",
"f. c #DC9652",
"g. c #DC9D56",
"h. c #E99747",
"j. c #D9A057",
"k. c #D2B05C",
"l. c #E3A041",
"z. c #E7AC43",
"x. c #E8AD47",
"c. c #E9A25F",
"v. c #EDAB59",
"b. c #E6B051",
"n. c #EDB554",
"m. c #EABD56",
"M. c #E5B459",
"N. c #E2B35C",
"B. c #E9B75A",
"V. c #C39367",
"C. c #DAA568",
"Z. c #DFB671",
"A. c #EBAF6D",
"S. c #E4B566",
"D. c #E4B962",
"F. c #E7BB65",
"G. c #EFBE66",
"H. c #EBC868",
"J. c #EDCD68",
"K. c #808080",
"L. c #828282",
"P. c #898687",
"I. c #8E8E8E",
"U. c #919191",
"Y. c #979797",
"T. c #9E9294",
"R. c #A9978D",
"E. c #BE9A8F",
"W. c #BCA094",
"Q. c #C29E8F",
"!. c None",
/* pixels */
"!.!.!.!.!.!.!.!.!.!.!.!.!.!.!.!.!.!.!.!.!.!.",
"!.!.!.!.!.!.!.!.!.!.!.!.!.!.!.!.!.!.!.!.!.!.",
"!.!.!.!.!.!.!.!.!.!.!.!.!.!.!.!.!.!.!.!.!.!.",
"!.!.!.!.!.!.!.!.!.!.L J !.!.!.!.!.!.!.!.!.!.",
"!.!.!.!.!.!.!.!.S L.U.U./ !.!.!.!.!.!.!.!.!.",
"!.!.!.!.!.!.!.E ( L.( ( L.( J !.!.!.!.!.!.!.",
"!.!.!.!.!.c E ! ! J L L J ! ! L !.!.!.!.!.!.",
"!.!.!.!.S L c j j c S S c c c J J c !.!.!.!.",
"!.!.y n a 4 3 0 u j c c j a 9 2 9 a c !.!.!.",
"!.!.Y./ 6 + % 4 u a j a w 4 > + + w U f !.!.",
"!.W Q.W.P.a < 4 u u 9 2 ; $ + > f K <.m !.!.",
"!.!.g.Z.E.T.Y 6 > & + o X O 8 B B 1.k.3.!.!.",
"!.!.A.B.-.V.R.~ w o . . @ r G C | +.H.d.!.!.",
"!.!.A.l.*.F.V.6.y.l & - f N M t.N.&.b.a.!.!.",
"!.!.h.9.-.H.*.+.y.Y S z V y...i.S.o.e.p.!.!.",
"!.!.!.' 8.n.$.j.k.C z < ,.J.i.X.M.O.` !.!.!.",
"!.!.!.!.:.q. .C.x.1 0 < } m.s.[ w.!.!.!.!.!.",
"!.!.!.!.!.!.!.v.r.!.!.!.] z.f.!.!.!.!.!.!.!.",
"!.!.!.!.!.!.!.=.{ !.!.!.!.#.$.!.!.!.!.!.!.!.",
"!.!.!.!.!.!.!.!.!.!.!.!.!.!.!.!.!.!.!.!.!.!.",
"!.!.!.!.!.!.!.!.!.!.!.!.!.!.!.!.!.!.!.!.!.!.",
"!.!.!.!.!.!.!.!.!.!.!.!.!.!.!.!.!.!.!.!.!.!."
};
