/* XPM */
static char *memory[] = {
/* columns rows colors chars-per-pixel */
"22 22 213 2 ",
"   c #000102",
".  c #000003",
"X  c #000202",
"o  c #000203",
"O  c #000401",
"+  c #000402",
"@  c #000403",
"#  c #000004",
"$  c #000104",
"%  c #000204",
"&  c #000304",
"*  c #013903",
"=  c #00330E",
"-  c #00460C",
";  c #03480D",
":  c #074E0F",
">  c #094D0D",
",  c #065808",
"<  c #0D5B0A",
"1  c #0B5D0C",
"2  c #004310",
"3  c #004215",
"4  c #014913",
"5  c #00461C",
"6  c #00451F",
"7  c #054F18",
"8  c #044C1B",
"9  c #044A1E",
"0  c #004C1D",
"q  c #065513",
"w  c #055117",
"e  c #005616",
"r  c #085712",
"t  c #0C5E10",
"y  c #005719",
"u  c #01531C",
"i  c #025D1B",
"p  c #295607",
"a  c #2E5805",
"s  c #2C5807",
"d  c #2D5807",
"f  c #27510B",
"g  c #29510A",
"h  c #2A510A",
"j  c #2A530B",
"k  c #2C520B",
"l  c #2F5A09",
"z  c #355803",
"x  c #335409",
"c  c #07600E",
"v  c #0C600A",
"b  c #086212",
"n  c #02631C",
"m  c #036D1B",
"M  c #097A1D",
"N  c #004220",
"B  c #014321",
"V  c #014421",
"C  c #024521",
"Z  c #044820",
"A  c #08482E",
"S  c #055320",
"D  c #055022",
"F  c #095821",
"G  c #095C24",
"H  c #004333",
"J  c #024930",
"K  c #064339",
"L  c #134437",
"P  c #194B3C",
"I  c #005E39",
"U  c #04583D",
"Y  c #1A573A",
"T  c #066025",
"R  c #0D6C25",
"E  c #1A6E2C",
"W  c #0B7520",
"Q  c #056A30",
"!  c #0A6F31",
"~  c #096A35",
"^  c #006A38",
"/  c #1C613F",
"(  c #007B36",
")  c #7D7C19",
"_  c #7F7E1D",
"`  c #134C43",
"'  c #194C4A",
"]  c #055245",
"[  c #0D5143",
"{  c #0C5643",
"}  c #035B4A",
"|  c #175B42",
" . c #1C574B",
".. c #1C554D",
"X. c #096B49",
"o. c #136D43",
"O. c #146D41",
"+. c #057947",
"@. c #0D7948",
"#. c #2D6C42",
"$. c #356044",
"%. c #2A6453",
"&. c #287F53",
"*. c #387656",
"=. c #386D61",
"-. c #377761",
";. c #397461",
":. c #3F7565",
">. c #504F4F",
",. c #554F50",
"<. c #594B52",
"1. c #594F55",
"2. c #525152",
"3. c #575454",
"4. c #565456",
"5. c #545657",
"6. c #575859",
"7. c #5A5958",
"8. c #5A595A",
"9. c #5E5D5C",
"0. c #5E5D5E",
"q. c #416F46",
"w. c #476859",
"e. c #52735D",
"r. c #756858",
"t. c #6C715D",
"y. c #7B705D",
"u. c #7C725F",
"i. c #7D745E",
"p. c #605F60",
"a. c #46756C",
"s. c #567F67",
"d. c #5F7072",
"f. c #5D7470",
"g. c #636162",
"h. c #646464",
"j. c #666565",
"k. c #6D6869",
"l. c #6C6A69",
"z. c #6B6A6C",
"x. c #746F62",
"c. c #7D7260",
"v. c #6F6E70",
"b. c #6B777C",
"n. c #637879",
"m. c #687D7A",
"M. c #6B7A7D",
"N. c #6B7A7E",
"B. c #727071",
"V. c #757275",
"C. c #7B7279",
"Z. c #7B7678",
"A. c #817A63",
"S. c #0A801E",
"D. c #11951E",
"F. c #0D8720",
"G. c #118C21",
"H. c #0D9F27",
"J. c #179627",
"K. c #1E9424",
"L. c #008A37",
"P. c #008439",
"I. c #049136",
"U. c #019437",
"Y. c #0B953B",
"T. c #298321",
"R. c #1EA432",
"E. c #1EA830",
"W. c #7D8019",
"Q. c #7C811D",
"!. c #7E941B",
"~. c #7D971A",
"^. c #7F921C",
"/. c #7C981B",
"(. c #35905E",
"). c #3DA856",
"_. c #3A9263",
"`. c #3D9265",
"'. c #3DAD64",
"]. c #448C62",
"[. c #508B61",
"{. c #578068",
"}. c #42926A",
"|. c #579368",
" X c #5C966B",
".X c #5F8871",
"XX c #6D8F7B",
"oX c #699D79",
"OX c #45A468",
"+X c #4AA86D",
"@X c #9E9809",
"#X c #89A417",
"$X c #97A91B",
"%X c #A2B602",
"&X c #848B22",
"*X c #8B8B31",
"=X c #939232",
"-X c #97AA31",
";X c #DAA602",
":X c #DCA104",
">X c #D7AD03",
",X c #D6AE02",
"<X c #D8A802",
"1X c #D7B603",
"2X c #D5BB01",
"3X c #D8B803",
"4X c #D5C401",
"5X c #DEC405",
"6X c #8E836E",
"7X c #708783",
"8X c #7E8D8D",
"9X c #5DC080",
"0X c None",
/* pixels */
"0X0X0X0X0X0X0X0X0X0X0X0X0X0Xb t 0X0X0X0X0X0X",
"0X0X0X0X0X0X0X0X0X0X0X0X0Xr J.D.* 0X0X0X0X0X",
"0X0X0X0X0X0X0X0X0X0X0X0Xq G.Y.).K., 0X0X0X0X",
"0X0X0X0X0X0X0X0X0X0X0Xw F.(.*.OX9XR.< 0X0X0X",
"0X0X0X0X0X0X0X0X0X0X7 S._.f.1.$.+X'.H.1 0X0X",
"0X0X0X0X0X0X0X0X0X8 M `.m.7.4.<.q.I.U.E.v 0X",
"0X0X0X0X0X0X0X0X9 W }.7Xj.p.>.r.[.L.&X#Xc 0X",
"0X0X0X0X0X0X0XZ m &.8XB.z.7.y.|.P.~.<Xz + 0X",
"0X0X0X0X0X0XC R o.~ e.A.p.6X|.( ~.,Xs + 0X0X",
"0X0X0X0X0XV T -.n.#.~ w.A.8X+./.3Xs X 0X0X0X",
"0X0X0X0XV i *.N.Z.V.O.Q ].@.-X5Xp X 0X0X0X0X",
"0X0X0XN y :.M.k.v.k.x.O.^ T.%Xl & 0X0X0X0X0X",
"0X0X5 F a.b.7.h.0.c.{.X.Q.@X> & 0X0X0X0X0X0X",
"0X5 S ..n.4.6.2.y.{.I *X:Xx @ 0X0X0X0X0X0X0X",
"0 D ' K L 4.2.i..XU ) ;Xj & 0X0X0X0X0X0X0X0X",
"3 u A ` %.P t.XX} =X>Xk & 0X0X0X0X0X0X0X0X0X",
"0X= e ..=.J | ] _ 1Xf & 0X0X0X0X0X0X0X0X0X0X",
"0X0X2 G Y { H W.2Xh & 0X0X0X0X0X0X0X0X0X0X0X",
"0X0X0X; T [ &X4Xg & 0X0X0X0X0X0X0X0X0X0X0X0X",
"0X0X0X0X- E $Xa X 0X0X0X0X0X0X0X0X0X0X0X0X0X",
"0X0X0X0X0X7 ; X 0X0X0X0X0X0X0X0X0X0X0X0X0X0X",
"0X0X0X0X0X0X0X0X0X0X0X0X0X0X0X0X0X0X0X0X0X0X"
};
