/* XPM */
static char *vcalendar[] = {
/* columns rows colors chars-per-pixel */
"22 22 230 2 ",
"   c #BD6A2E",
".  c #B76E36",
"X  c #BA6931",
"o  c #FF6900",
"O  c #FF6C00",
"+  c #FF6D08",
"@  c #FF7001",
"#  c #FF7300",
"$  c #FF7700",
"%  c #FF7502",
"&  c #FF7B00",
"*  c #FF7802",
"=  c #FF7F00",
"-  c #FF7C02",
";  c #FB7109",
":  c #FB780C",
">  c #FB7E0F",
",  c #FF7812",
"<  c #FF8200",
"1  c #FF8003",
"2  c #FF8600",
"3  c #FF8403",
"4  c #FF8B00",
"5  c #FF8E00",
"6  c #FF8804",
"7  c #FF8B04",
"8  c #FF9300",
"9  c #FF9700",
"0  c #FF9005",
"q  c #FF9405",
"w  c #FF9705",
"e  c #FF9A00",
"r  c #FF9E00",
"t  c #FF9E03",
"y  c #FF9A04",
"u  c #FB8312",
"i  c #FB8715",
"p  c #FB8C17",
"a  c #FF811B",
"s  c #FB911A",
"d  c #FB941C",
"f  c #FB981F",
"g  c #DCA519",
"h  c #FFA200",
"j  c #FFA103",
"k  c #FFA500",
"l  c #FFA503",
"z  c #FFA900",
"x  c #FFA802",
"c  c #FFAC00",
"v  c #FFAC02",
"b  c #FFB000",
"n  c #FFB001",
"m  c #FFB300",
"M  c #FFB700",
"N  c #FFB309",
"B  c #FBB709",
"V  c #FBB10F",
"C  c #FBB50D",
"Z  c #E0A815",
"A  c #FBAF12",
"S  c #FBAE15",
"D  c #FBA51D",
"F  c #FBAA18",
"G  c #FBA91B",
"H  c #FFB413",
"J  c #FFB31B",
"K  c #FF8822",
"L  c #FF8F2B",
"P  c #FB9E22",
"I  c #FF9733",
"U  c #FF9E3C",
"Y  c #D5A521",
"T  c #FBA223",
"R  c #FBA420",
"E  c #FFB323",
"W  c #FFB22C",
"Q  c #FFB334",
"!  c #FFB23D",
"~  c #FFA444",
"^  c #FFB546",
"/  c #FBAD51",
"(  c #FBB352",
")  c #F6B15F",
"_  c #F4B562",
"`  c #8E8E8E",
"'  c #909194",
"]  c #969696",
"[  c #939698",
"{  c #A0A0A0",
"}  c #A1A1A1",
"|  c #A4A4A2",
" . c #A4A5A6",
".. c #A5A6A6",
"X. c #A6A7A7",
"o. c #A9A8A7",
"O. c #A6A8A8",
"+. c #A8A9A9",
"@. c #A9A9A9",
"#. c #ABACAC",
"$. c #AEAEAE",
"%. c #AEAFAF",
"&. c #B0B0B0",
"*. c #B1B1B1",
"=. c #B2B2B2",
"-. c #B3B3B3",
";. c #B5B5B5",
":. c #BABABA",
">. c #BBBBBB",
",. c #B8BABD",
"<. c #BBBCBF",
"1. c #F1C2AB",
"2. c #F1C2AD",
"3. c #F2C4AE",
"4. c #F3C4AF",
"5. c #EDC3B1",
"6. c #EFC5B3",
"7. c #BBBDC0",
"8. c #BCBEC1",
"9. c #B9BAD3",
"0. c #BFC0C3",
"q. c #C1C2C5",
"w. c #C3C4C6",
"e. c #C4C6C8",
"r. c #C4C7C9",
"t. c #C5C7C9",
"y. c #C5C7CA",
"u. c #C6C8CA",
"i. c #C7C8CA",
"p. c #C8CACC",
"a. c #C9CACC",
"s. c #CACBCC",
"d. c #C9CCCF",
"f. c #CFCFCF",
"g. c #D7D9DC",
"h. c #DDDEDB",
"j. c #D8DADC",
"k. c #D8DADE",
"l. c #DADCDE",
"z. c #DBDCDF",
"x. c #DBDDDF",
"c. c #DBDCE0",
"v. c #DCDEE0",
"b. c #DDDFE0",
"n. c #DCDEE1",
"m. c #DEDFE3",
"M. c #CAD6F3",
"N. c #CBD9F5",
"B. c #CEDBF8",
"V. c #CFDDFB",
"C. c #DEE0E1",
"Z. c #D1E0FD",
"A. c #D3E1FD",
"S. c #D2E1FE",
"D. c #D4E2FE",
"F. c #D5E3FF",
"G. c #E1E2E4",
"H. c #E1E3E4",
"J. c #E2E3E7",
"K. c #E2E4E4",
"L. c #E2E4E5",
"P. c #E3E4E6",
"I. c #E3E5E6",
"U. c #E4E4E4",
"Y. c #E4E5E7",
"T. c #E4E6E6",
"R. c #E5E6E7",
"E. c #E9E7E6",
"W. c #E6E7E8",
"Q. c #E6E8E9",
"!. c #E7E8E9",
"~. c #E7E9E9",
"^. c #E7E9EA",
"/. c #E6E9EC",
"(. c #E9E8E8",
"). c #E8E9EB",
"_. c #E9EAEA",
"`. c #E9EAEB",
"'. c #EAEAEA",
"]. c #EBECEB",
"[. c #E9EAEC",
"{. c #E9EBEC",
"}. c #EAEBED",
"|. c #EAECED",
" X c #EBECED",
".X c #EBECEE",
"XX c #ECEDED",
"oX c #EDEDEE",
"OX c #EDEEEE",
"+X c #ECEEEF",
"@X c #EDEEEF",
"#X c #EEEEEE",
"$X c #EEEFEF",
"%X c #EFEFEF",
"&X c #F2F0EE",
"*X c #E8ECF0",
"=X c #EDEEF0",
"-X c #EEEFF0",
";X c #EEEEF1",
":X c #EFF0F0",
">X c #EEF0F1",
",X c #EFF0F2",
"<X c #EFF3F4",
"1X c #F0F1F1",
"2X c #F1F2F1",
"3X c #F2F2F2",
"4X c #F3F3F3",
"5X c #F1F2F4",
"6X c #F0F3F5",
"7X c #F2F2F5",
"8X c #F4F4F4",
"9X c #F4F4F5",
"0X c #F4F5F5",
"qX c #F5F5F5",
"wX c #F6F6F6",
"eX c #F8F8F6",
"rX c #F3F6F9",
"tX c #F7F8F9",
"yX c #F7F9F9",
"uX c #F7F8FA",
"iX c #F9F9FA",
"pX c #F9FBFB",
"aX c #FBFBFB",
"sX c #FDFDFB",
"dX c #FAFDFD",
"fX c #FDFDFD",
"gX c #FEFEFD",
"hX c #FEFEFE",
"jX c #FFFFFF",
"kX c None",
/* pixels */
"kXkXkXkXkXkXkXkXkXkXkXkXkXkXkXkXkXkXkXkXkXkX",
"kX+ , a K L I U ~ / _ _ ( ^ ! Q W E J H N kX",
"X o @ % % = = 3 6 6 0 q q e t j l x c c m g ",
"  O % % & = 3 2 4 5 8 e t t j k x c m m M Z ",
". ; : > u i p s d f P T D D G F S H V C B Y ",
"[ d.e.e.u.e.i.e.a.a.a.a.e.e.e.w.0.7.,.,.7.' ",
"o.&XE.U.E.U.E.9.9.9.9.9.9.9.9.9.9.9.9.9.x.| ",
";.jXjXjXjXjXjX9.7XiX9.;X9X.X9.oX9.W.^.9.:X$.",
";.jXjXjXjXjXjX9.iXjX9.rXdX<X9.9X9.oXoX9.:X#.",
"=.jX9.9.9.9.9.9.9.9.9.9.9.9.9.9.9.9.9.9.:XO.",
"=.jX9.A.A.9.jX9.7XiX9.3.3.6.9.;X9.^.W.9.|.X.",
"=.jX9.A.A.9.jX9.;XyX9.3.1.5.9.|.9.U.U.9.^. .",
";.jX9.9.9.9.9.9.9.9.9.9.9.9.9.9.9.9.9.9.^...",
"=.jX9.F.A.9.sX9.;X9X9.*X<X/.9._.9.K.K.j.{.+.",
"=.jX9.9.9.9.9.9.9.9.9.9.9.9.9.9.9.x.k.k.yX+.",
";.jX9.N.M.9.:X9.J.{.9.m.L.n.9.n.9.k.x.{.jX} ",
"=.jX9.V.B.9.eX9.{.2X9.Y.|.J.9.K.9.K.:XjXsX] ",
"&.jX9.9.9.9.9.9.9.9.9.9.9.9.9.9.9.:XjXjXK.` ",
"&.jX9X9X2X:XoX_.^.U.L.J.b.x.b.K.|.9X_.f.:.{ ",
"$.iX9X9X8X8X2X2X:X:X&XoXoXoXoX:X4XoX_.2XjX:.",
"kXkXkXkXkXkXkXkXkXkXkXkXkXkXkXkXkXkXkXkXkXkX",
"kXkXkXkXkXkXkXkXkXkXkXkXkXkXkXkXkXkXkXkXkXkX"
};
