/* XPM */
static char *xclock[] = {
/* columns rows colors chars-per-pixel */
"22 22 187 2 ",
"   c #030303",
".  c #040404",
"X  c #050505",
"o  c #060606",
"O  c #070707",
"+  c #080808",
"@  c #090909",
"#  c #0A0A0A",
"$  c #0B0B0B",
"%  c #0C0C0C",
"&  c #0D0D0D",
"*  c #0E0E0E",
"=  c #0F0F0F",
"-  c #101010",
";  c #111111",
":  c #121212",
">  c #131313",
",  c #141414",
"<  c #161616",
"1  c #171717",
"2  c #181818",
"3  c #1C1C1C",
"4  c #1D1D1D",
"5  c #1F1F1F",
"6  c #202020",
"7  c #212121",
"8  c #242424",
"9  c #252525",
"0  c #262626",
"q  c #272727",
"w  c #292929",
"e  c #2A2A2A",
"r  c #2C2C2C",
"t  c #2E2E2E",
"y  c #313131",
"u  c #323232",
"i  c #333333",
"p  c #343434",
"a  c #353535",
"s  c #363636",
"d  c #373737",
"f  c #3E3232",
"g  c #383838",
"h  c #393939",
"j  c #3A3A3A",
"k  c #3D3D3D",
"l  c #3F3F3F",
"z  c #463D3D",
"x  c #404040",
"c  c #444444",
"v  c #464646",
"b  c #474747",
"n  c #484848",
"m  c #494949",
"M  c #4A4A4A",
"N  c #4B4B4B",
"B  c #4C4C4C",
"V  c #4D4D4D",
"C  c #4F4F4F",
"Z  c #525252",
"A  c #535353",
"S  c #555555",
"D  c #575757",
"F  c #585858",
"G  c #595959",
"H  c #5A5A5A",
"J  c #5E5E5E",
"K  c #5F5F5F",
"L  c #606060",
"P  c #616161",
"I  c #636363",
"U  c #646464",
"Y  c #656565",
"T  c #666666",
"R  c #676767",
"E  c #686868",
"W  c #696969",
"Q  c #6A6A6A",
"!  c #6C6C6C",
"~  c #6D6D6D",
"^  c #6E6E6E",
"/  c #6F6F6F",
"(  c #707070",
")  c #717171",
"_  c #727272",
"`  c #757575",
"'  c #767676",
"]  c #777777",
"[  c #7B7B7B",
"{  c #7C7C7C",
"}  c #F02525",
"|  c #E94F4F",
" . c #E75555",
".. c #E85555",
"X. c #E85A5A",
"o. c #808080",
"O. c #818181",
"+. c #828282",
"@. c #838383",
"#. c #888888",
"$. c #898989",
"%. c #8A8A8A",
"&. c #8B8B8B",
"*. c #8C8C8C",
"=. c #8D8D8D",
"-. c #8E8E8E",
";. c #8F8F8F",
":. c #909090",
">. c #929292",
",. c #939393",
"<. c #959595",
"1. c #969696",
"2. c #979797",
"3. c #999999",
"4. c #9A9A9A",
"5. c #9B9B9B",
"6. c #A2A2A2",
"7. c #A3A3A3",
"8. c #A3A4A4",
"9. c #A6A6A6",
"0. c #A7A7A7",
"q. c #A8A8A8",
"w. c #A9A9A9",
"e. c #AAAAAA",
"r. c #ABABAB",
"t. c #B2B2B2",
"y. c #B3B3B3",
"u. c #B7B4B4",
"i. c #B6B6B6",
"p. c #B8B8B8",
"a. c #B9B9B9",
"s. c #BCBCBC",
"d. c #BDBDBD",
"f. c #BEBEBE",
"g. c #BFBFBF",
"h. c #CCAAAA",
"j. c #CDB9B9",
"k. c #D9BABA",
"l. c #C2C2C2",
"z. c #C3C3C3",
"x. c #C4C4C4",
"c. c #C4C5C5",
"v. c #C5C5C5",
"b. c #C6C6C6",
"n. c #C8C8C8",
"m. c #CACACA",
"M. c #CBCBCB",
"N. c #CDC8C8",
"B. c #CCCCCC",
"V. c #CDCDCD",
"C. c #CECECE",
"Z. c #CFCFCF",
"A. c #D6CACA",
"S. c #D1CFCF",
"D. c #DBCCCC",
"F. c #D0D0D0",
"G. c #D1D1D1",
"H. c #D2D2D2",
"J. c #D2D3D3",
"K. c #D3D3D3",
"L. c #D4D0D0",
"P. c #D4D4D4",
"I. c #D5D5D5",
"U. c #D6D5D5",
"Y. c #D5D6D6",
"T. c #D6D6D6",
"R. c #D7D7D7",
"E. c #DCD3D3",
"W. c #D8D8D8",
"Q. c #D9D9D9",
"!. c #DADADA",
"~. c #DBDBDB",
"^. c #DFDADA",
"/. c #DBDCDC",
"(. c #DCDCDC",
"). c #DDDDDD",
"_. c #DEDEDE",
"`. c #DFDFDF",
"'. c #E0E0E0",
"]. c #E1E1E1",
"[. c #E2E2E2",
"{. c #E3E3E3",
"}. c #E3E4E4",
"|. c #E4E4E4",
" X c #E5E5E5",
".X c #E6E6E6",
"XX c None",
/* pixels */
"XXXXXXXXXXXXXXXXXX% % % $ XXXXXXXXXXXXXXXXXX",
"XXXXXXXXXXXX- 8 j M V M x r 1 O XXXXXXXXXXXX",
"XXXXXXXX$ 8 V ~ o.*.:.*.o.( D s 1 XXXXXXXXXX",
"XXXXXX$ s R $.r.l.V.F.V.m.y.*.W x 1 XXXXXXXX",
"XXXX% s ( 3.b._.|.|.0._.|.!.L r.( x 1 XXXXXX",
"XXXX8 R 3.V.{.|.|.|.0.!.{.L b.!.r.L y $ XXXX",
"XX- V $.b.{.{.|.|.|.!.{.V.F T.|.!.2.A 3 XXXX",
"XX8 ~ r._.{.{._.!.{.|._.F f.|.|.|.z.( g $ XX",
"XXs o.b.{.{.|.!.L F.|.b.A T.|.^.E.F.*.M - XX",
"% M $.b._.{.{.{.V.F b.e y.D.k...X.L.0.D 3 XX",
"% V :.b.V.T._.{._.e b z } | ..j.N.F.r.J 6 XX",
"$ k @.y.$.*.F.!._.s.y f h.A.T.b.3.3.0.J 8 XX",
"O y ] f.F.T.!._._.F.r.p.!.!.!.P.F.V.0.F 3 XX",
"XX8 R y.T.!.!._.`._._._.!.!.W.T.T.m.*.V - XX",
"XX1 V 2.F././._.`.`._.!.!.T.T.F.F.s.] j $ XX",
"XX$ y ~ s.!._.`.`._.T.T.!.T.T.P.m.2.A 6 XXXX",
"XXXX1 b o.b._._._.!.:.m.!.T.F.V.r.W s % XXXX",
"XXXX  6 A o.s.!._.!.2.b.T.F.b.7.~ k - XXXXXX",
"XXXXXXO 6 b ~ 3.y.m.y.f.f.r.@.L j 1 XXXXXXXX",
"XXXXXXXXO 2 y A R [ { [ ( J M e % XXXXXXXXXX",
"XXXXXXXXXXXX$ 1 8 y j s r 6 - O XXXXXXXXXXXX",
"XXXXXXXXXXXXXXXX  O $ O O XXXXXXXXXXXXXXXXXX"
};
